<svg xmlns="http://www.w3.org/2000/svg" xmlns:xlink="http://www.w3.org/1999/xlink" version="1.1" x="0px" y="0px" viewBox="0 0 100 125" style="enable-background:new 0 0 100 100;" xml:space="preserve"><path d="M84,12.5h-7v3c0,2.8-2.2,5-5,5s-5-2.2-5-5v-3H32v3c0,2.8-2.2,5-5,5s-5-2.2-5-5v-3h-6c-2.8,0-5,2.2-5,5v17v53  c0,2.8,2.2,5,5,5h68c2.8,0,5-2.2,5-5v-53v-17C89,14.7,86.8,12.5,84,12.5z M87,87.5c0,1.6-1.3,3-3,3H16c-1.7,0-3-1.4-3-3v-51h74V87.5  z M24,15.5v-3v-2c0-1.7,1.3-3,3-3s3,1.3,3,3v2v3c0,1.6-1.3,3-3,3S24,17.1,24,15.5z M69,15.5v-3v-2c0-1.7,1.3-3,3-3s3,1.3,3,3v2v3  c0,1.6-1.3,3-3,3S69,17.1,69,15.5z M42,46.5h-6v-6h6V46.5z M52.8,46.5h-6v-6h6V46.5z M63.5,46.5h-6v-6h6V46.5z M74.2,46.5h-6v-6h6  V46.5z M85,46.5h-6v-6h6V46.5z M36.3,50.5h6v6h-6V50.5z M47,50.5h6v6h-6V50.5z M21,56.5h-6v-6h6V56.5z M31.7,56.5h-6v-6h6V56.5z   M57.7,50.5h6v6h-6V50.5z M68.3,50.5h6v6h-6V50.5z M85,56.5h-6v-6h6V56.5z M36.3,60.5h6v6h-6V60.5z M47,60.5h6v6h-6V60.5z M21,66.5  h-6v-6h6V66.5z M31.7,66.5h-6v-6h6V66.5z M57.7,60.5h6v6h-6V60.5z M68.3,60.5h6v6h-6V60.5z M85,66.5h-6v-6h6V66.5z M36.3,70.5h6v6  h-6V70.5z M47,70.5h6v6h-6V70.5z M21,76.5h-6v-6h6V76.5z M31.7,76.5h-6v-6h6V76.5z M21,86.5h-6v-6h6V86.5z M31.7,86.5h-6v-6h6V86.5z   M57.7,70.5h6v6h-6V70.5z M68.3,70.5h6v6h-6V70.5z M85,76.5h-6v-6h6V76.5z"/></svg>
