<svg xmlns="http://www.w3.org/2000/svg" viewBox="0 0 64 80" x="0px" y="0px"><title>Busines &amp;amp; Finance</title><g><path d="M16,21a4,4,0,0,0-4,4,1,1,0,0,0,2,0,2,2,0,0,1,4,0,1,1,0,0,0,2,0A4,4,0,0,0,16,21Z"/><path d="M60.26,24.31a6,6,0,0,0-6.58,1.92,16.87,16.87,0,0,0-3.25-4.6,10.2,10.2,0,1,0-16.59-7.95c0,.19,0,.37,0,.56-.69-.08-1.38-.14-2.08-.17A9,9,0,0,0,23,7a1,1,0,0,0-1,1v.53A9,9,0,0,0,17,7a1,1,0,0,0-1,1v9.09A21.43,21.43,0,0,0,7.61,24H4a3,3,0,0,0-3,3v7.47a3,3,0,0,0,2.21,2.9l3.37.91a19.77,19.77,0,0,0,8.57,8.2l.69,5.37a2.83,2.83,0,0,0,3,2.15h2.34a2.83,2.83,0,0,0,3-2.15l.29-2.3a34.45,34.45,0,0,0,11.1,0l.29,2.3a2.83,2.83,0,0,0,3,2.15h2.34a2.83,2.83,0,0,0,3-2.15l.69-5.37C51.21,43.1,55,37.72,55,32a13,13,0,0,0-.45-3.33,4,4,0,0,1,5.08-2.46,3,3,0,0,1,1.92,3.84,2.23,2.23,0,0,1-2.82,1.41,1.57,1.57,0,0,1-1-2,1.07,1.07,0,0,1,1.35-.68,1,1,0,1,0,.63-1.89,3.07,3.07,0,0,0-3.88,1.94,3.59,3.59,0,0,0,2.27,4.53,4.12,4.12,0,0,0,1.33.22,4.24,4.24,0,0,0,4-2.9A5,5,0,0,0,60.26,24.31ZM44,5.48a8.2,8.2,0,0,1,4.31,15.18,7.81,7.81,0,0,1-2.32,1,23.13,23.13,0,0,0-9.25-4.14,8.24,8.24,0,0,1-.8-2.3,7.88,7.88,0,0,1-.14-1.5A8.21,8.21,0,0,1,44,5.48ZM22,11.13V15a31.59,31.59,0,0,0-4,1.25V9.07A7,7,0,0,1,22,11.13ZM43.47,45s0,0-.08.06a.79.79,0,0,0-.15.12.86.86,0,0,0-.13.14l-.09.16a.82.82,0,0,0-.06.19s0,.06,0,.09l-.76,5.88c0,.1-.35.41-1,.41H38.83c-.66,0-1-.31-1-.41l-.53-4.07a1,1,0,0,0-1.12-.86,1,1,0,0,0-.85.9,33.44,33.44,0,0,1-10.66,0,1,1,0,0,0-.85-.9,1,1,0,0,0-1.12.86l-.53,4.07c0,.1-.34.41-1,.41H18.83c-.66,0-1-.31-1-.41l-.76-5.87a.32.32,0,0,0,0-.09.7.7,0,0,0-.06-.19l-.09-.16a.86.86,0,0,0-.13-.14.79.79,0,0,0-.15-.12s-.05-.05-.08-.06a18,18,0,0,1-8.37-8l0,0A1,1,0,0,0,8,36.8l-.11-.13-.15-.09a.87.87,0,0,0-.19-.1l0,0-3.78-1a1,1,0,0,1-.74-1V27a1,1,0,0,1,1-1H8.13a1,1,0,0,0,.35-.07l.07,0a.8.8,0,0,0,.27-.18l0,0A.69.69,0,0,0,9,25.54a19.42,19.42,0,0,1,8.45-6.92A28.44,28.44,0,0,1,22,17v3a1,1,0,0,0,2,0V9.07A7,7,0,0,1,30,15.14,8.11,8.11,0,0,1,30,16a6.91,6.91,0,0,1-.94,3.49,1,1,0,0,0,.35,1.37,1,1,0,0,0,.51.14,1,1,0,0,0,.86-.49A8.87,8.87,0,0,0,32,16.08c.75.05,1.48.12,2.2.21a6.65,6.65,0,0,0,.23.76l-.31,0a1,1,0,1,0-.22,2c.09,0,8.63,1,12.33,5.63A1,1,0,0,0,47,25a1,1,0,0,0,.62-.22,1,1,0,0,0,.16-1.4,2,2,0,0,0-.14-.16,7.3,7.3,0,0,0,1.07-.48A12.84,12.84,0,0,1,53,32C53,37.09,49.44,41.93,43.47,45Z"/><path d="M43.38,15.75a1,1,0,0,0-1.87.49A1.51,1.51,0,0,0,43,17.75h0v.53a1,1,0,0,0,2,0v-.53h0a1.51,1.51,0,0,0,1.51-1.51v-2a1.51,1.51,0,0,0-1.51-1.51H43.51V11.61H44.7a1,1,0,0,0,1.87-.49,1.51,1.51,0,0,0-1.51-1.51h0V9.08a1,1,0,1,0-2,0v.53h0a1.51,1.51,0,0,0-1.51,1.51v2.05A1.51,1.51,0,0,0,43,14.68h1.55v1.07Z"/></g></svg>
