<svg xmlns="http://www.w3.org/2000/svg" viewBox="0 0 100 125" x="0px" y="0px"><path d="m11.213267 56.765417c.08076 6.953529.148714 8.155496.10506 10.449111-1.091399.06813-1.499663.07135-2.9072.1799-.863449.06659-2.571867.112727-3.178242.734473-.793971.814101.660437 2.46115 1.10963 3.133631.866238 1.296832 1.771663 1.813399 4.872188 1.786534-.02732 1.548105-.07102 2.628333-.09019 5.184018-.03169 4.225907 1.43547 9.051437 2.788701 5.951594 1.268774-2.906375 1.714097-7.011329 2.143936-11.435926 1.378508-.137068 2.476439-.237956 3.703078-.390025-.02975 1.63062-.08288 2.989564-.10506 5.873877-.03252 4.225901 1.443826 9.055072 2.788701 5.951595 1.351719-3.119286 1.794682-7.564465 2.218772-12.337829 1.216126-.151596 2.428895-.310868 3.643107-.479735-.03169 1.72033-.09284 3.482236-.119935 6.865969-.03384 4.225891 1.438479 9.059389 2.773347 5.951595 1.456988-3.392104 1.92374-8.358906 2.33871-13.566911 1.211813-.19861 2.393882-.412092 3.552915-.629892-.03551 1.79373-.09912 4.035826-.134803 8.246647-.03578 4.225875 1.4511 9.064779 2.773347 5.951595 1.600439-3.768169 2.059028-9.348599 2.443771-15.126529 1.813402-.432242 3.535675-.658888 4.947511-1.274657 3.336266-1.455103-.205331-2.872173-4.737387-2.907195.21856-7.187421-.05735-7.363882-2.053744-9.654668-.552977-.634509-1.511931-1.213447-2.416558-.828059-.904628.385388-.889593 1.756053-.881625 2.372325.06546 5.061177.121856 6.832868.119935 8.380494-1.428653.123771-2.165045.183738-3.313052.284962.01824-.399139.04452-.805478.05998-1.199337.276247-7.048272-.07814-6.680512-2.098835-9.009906-.551521-.635773-1.549377-1.213446-2.454008-.828058-.904631.385388-.852511 1.756057-.844169 2.372325.0785 5.800462.134803 7.409509.119928 9.12936-1.361483.123292-2.435129.216361-3.343273.299834.03308-.658196.06491-1.319266.09019-1.964035.276467-7.048264-.07814-6.680512-2.098835-9.009905-.551521-.635774-1.474478-1.213447-2.377854-.827658-.903375.385788-.914102 1.755661-.905454 2.371924.09115 6.494652.153034 7.883488.119935 9.894537-.85345.06381-2.100283.141043-3.386934.224996.04896-.893266.08578-1.782219.119935-2.653414.275757-7.033401-.06352-6.681804-2.083965-9.009906-.555106-.639623-1.536935-1.067131-2.370131-.915334-1.050939.191466-.943564 1.412328-.931423 2.457683z"/><path d="m11.213276 17.318207c.08076 6.953529.148714 8.155496.10506 10.449111-1.091399.06813-1.499663.07135-2.9072.1799-.863449.06659-2.571867.112727-3.178242.734473-.793971.814101.660437 2.46115 1.10963 3.133631.866238 1.296832 1.771663 1.813399 4.872188 1.786534-.02732 1.548105-.07102 2.628333-.09019 5.184018-.03169 4.225907 1.43547 9.051437 2.788701 5.951594 1.268774-2.906375 1.714097-7.011329 2.143936-11.435926 1.378508-.137068 2.476439-.237956 3.703078-.390025-.02975 1.63062-.08288 2.989564-.10506 5.873877-.03252 4.225901 1.443826 9.055072 2.788701 5.951595 1.351719-3.119286 1.794682-7.564465 2.218772-12.337829 1.216126-.151596 2.428895-.310868 3.643107-.479735-.03169 1.72033-.09284 3.482236-.119935 6.865969-.03384 4.225891 1.438479 9.059389 2.773347 5.951595 1.456988-3.392104 1.92374-8.358906 2.33871-13.566911 1.211813-.19861 2.393882-.412092 3.552915-.629892-.03551 1.79373-.09912 4.035826-.134803 8.246647-.03578 4.225875 1.4511 9.064779 2.773347 5.951595 1.600439-3.768169 2.059028-9.348599 2.443771-15.126529 1.813402-.432242 3.535675-.658888 4.947511-1.274657 3.336266-1.455103-.205331-2.872173-4.737387-2.907195.21856-7.187421-.05735-7.363882-2.053744-9.654668-.552977-.634509-1.511931-1.213447-2.416558-.828059-.904628.385388-.889593 1.756053-.881625 2.372325.06546 5.061177.121856 6.832868.119935 8.380494-1.428653.123771-2.165045.183738-3.313052.284962.01824-.399139.04452-.805478.05998-1.199337.276247-7.048272-.07814-6.680512-2.098835-9.009906-.551521-.635773-1.549377-1.213446-2.454008-.828058-.904631.385388-.852511 1.756057-.844169 2.372325.0785 5.800462.134803 7.409509.119928 9.12936-1.361483.123292-2.435129.216361-3.343273.299834.03308-.658196.06491-1.319266.09019-1.964035.276467-7.048264-.07814-6.680512-2.098835-9.009905-.551521-.635774-1.474478-1.213447-2.377854-.827658-.903375.385788-.914102 1.755661-.905454 2.371924.09115 6.494652.153034 7.883488.119935 9.894537-.85345.06381-2.100283.141043-3.386934.224996.04896-.893266.08578-1.782219.119935-2.653414.275757-7.033401-.06352-6.681804-2.083965-9.009906-.555106-.639623-1.536935-1.067131-2.370131-.915334-1.050939.191466-.943564 1.412328-.931423 2.457683z"/><path d="m58.018213 17.318207c.08076 6.953529.148714 8.155496.10506 10.449111-1.091399.06813-1.499663.07135-2.9072.1799-.863449.06659-2.571867.112727-3.178242.734473-.793971.814101.660437 2.46115 1.10963 3.133631.866238 1.296832 1.771663 1.813399 4.872188 1.786534-.02732 1.548105-.07102 2.628333-.09019 5.184018-.03169 4.225907 1.43547 9.051437 2.788701 5.951594 1.268774-2.906375 1.714097-7.011329 2.143936-11.435926 1.378508-.137068 2.476439-.237956 3.703078-.390025-.02975 1.63062-.08288 2.989564-.10506 5.873877-.03252 4.225901 1.443826 9.055072 2.788701 5.951595 1.351719-3.119286 1.794682-7.564465 2.218772-12.337829 1.216126-.151596 2.428895-.310868 3.643107-.479735-.03169 1.72033-.09284 3.482236-.119935 6.865969-.03384 4.225891 1.438479 9.059389 2.773347 5.951595 1.456988-3.392104 1.92374-8.358906 2.33871-13.566911 1.211813-.19861 2.393882-.412092 3.552915-.629892-.03551 1.79373-.09912 4.035826-.134803 8.246647-.03578 4.225875 1.4511 9.064779 2.773347 5.951595 1.600439-3.768169 2.059028-9.348599 2.443771-15.126529 1.813402-.432242 3.535675-.658888 4.947511-1.274657 3.336266-1.455103-.205331-2.872173-4.737387-2.907195.21856-7.187421-.05735-7.363882-2.053744-9.654668-.552977-.634509-1.511931-1.213447-2.416558-.828059-.904628.385388-.889593 1.756053-.881625 2.372325.06546 5.061177.121856 6.832868.119935 8.380494-1.428653.123771-2.165045.183738-3.313052.284962.01824-.399139.04452-.805478.05998-1.199337.276247-7.048272-.07814-6.680512-2.098835-9.009906-.551521-.635773-1.549377-1.213446-2.454008-.828058-.904631.385388-.852511 1.756057-.844169 2.372325.0785 5.800462.134803 7.409509.119928 9.12936-1.361483.123292-2.435129.216361-3.343273.299834.03308-.658196.06491-1.319266.09019-1.964035.276467-7.048264-.07814-6.680512-2.098835-9.009905-.551521-.635774-1.474478-1.213447-2.377854-.827658-.903375.385788-.914102 1.755661-.905454 2.371924.09115 6.494652.153034 7.883488.119935 9.894537-.85345.06381-2.100283.141043-3.386934.224996.04896-.893266.08578-1.782219.119935-2.653414.275757-7.033401-.06352-6.681804-2.083965-9.009906-.555106-.639623-1.536935-1.067131-2.370131-.915334-1.050939.191466-.943564 1.412328-.931423 2.457683z"/><path d="m58.01823 56.765417c.0996 6.953285.148718 8.155496.06141 12.993625-.08731 4.838129-.130992 5.918357-.150158 8.474042-.03171 4.225907 1.435468 9.051437 2.788701 5.951593 1.268775-2.906374 1.96888-7.011328 2.592488-16.998216.623607-9.986888.02955-9.635291-1.990901-11.963393-.555106-.639623-1.598121-1.288885-2.505415-.904165-.907294.38472-.804952 1.830251-.796125 2.446514z"/><path d="m66.737707 56.765417c.0996 6.953285.148719 8.155496.06141 12.993625-.08731 4.838129-.130991 5.918357-.150158 8.474042-.03171 4.225907 1.435469 9.051437 2.788703 5.951593 1.268775-2.906374 1.968879-7.011328 2.592486-16.998216.623607-9.986888.02954-9.635291-1.990898-11.963393-.555111-.639623-1.598122-1.251432-2.505417-.866712-.907294.38472-.804952 1.792798-.796126 2.409061z"/></svg>
